<svg width="512" height="512" viewBox="0 0 512 512" fill="none" xmlns="http://www.w3.org/2000/svg">
  <!-- Connection lines between people -->
  <path d="M256 256L140 180M256 256L372 180M256 256L140 332M256 256L372 332" stroke="#7E57C2" stroke-width="8" stroke-linecap="round"/>
  
  <!-- Center node - main person -->
  <circle cx="256" cy="256" r="40" fill="#7E57C2"/>
  <circle cx="256" cy="256" r="24" fill="#FFFFFF"/>
  
  <!-- Person silhouette in center -->
  <path d="M256 242C260.418 242 264 238.418 264 234C264 229.582 260.418 226 256 226C251.582 226 248 229.582 248 234C248 238.418 251.582 242 256 242Z" fill="#7E57C2"/>
  <path d="M264 246H248C245.791 246 244 247.791 244 250V262C244 264.209 245.791 266 248 266H264C266.209 266 268 264.209 268 262V250C268 247.791 266.209 246 264 246Z" fill="#7E57C2"/>
  
  <!-- Top left node -->
  <circle cx="140" cy="180" r="30" fill="#9575CD"/>
  <circle cx="140" cy="180" r="18" fill="#FFFFFF"/>
  <path d="M140 169C143.314 169 146 166.314 146 163C146 159.686 143.314 157 140 157C136.686 157 134 159.686 134 163C134 166.314 136.686 169 140 169Z" fill="#9575CD"/>
  <path d="M146 172H134C132.343 172 131 173.343 131 175V184C131 185.657 132.343 187 134 187H146C147.657 187 149 185.657 149 184V175C149 173.343 147.657 172 146 172Z" fill="#9575CD"/>
  
  <!-- Top right node -->
  <circle cx="372" cy="180" r="30" fill="#9575CD"/>
  <circle cx="372" cy="180" r="18" fill="#FFFFFF"/>
  <path d="M372 169C375.314 169 378 166.314 378 163C378 159.686 375.314 157 372 157C368.686 157 366 159.686 366 163C366 166.314 368.686 169 372 169Z" fill="#9575CD"/>
  <path d="M378 172H366C364.343 172 363 173.343 363 175V184C363 185.657 364.343 187 366 187H378C379.657 187 381 185.657 381 184V175C381 173.343 379.657 172 378 172Z" fill="#9575CD"/>
  
  <!-- Bottom left node -->
  <circle cx="140" cy="332" r="30" fill="#9575CD"/>
  <circle cx="140" cy="332" r="18" fill="#FFFFFF"/>
  <path d="M140 321C143.314 321 146 318.314 146 315C146 311.686 143.314 309 140 309C136.686 309 134 311.686 134 315C134 318.314 136.686 321 140 321Z" fill="#9575CD"/>
  <path d="M146 324H134C132.343 324 131 325.343 131 327V336C131 337.657 132.343 339 134 339H146C147.657 339 149 337.657 149 336V327C149 325.343 147.657 324 146 324Z" fill="#9575CD"/>
  
  <!-- Bottom right node -->
  <circle cx="372" cy="332" r="30" fill="#9575CD"/>
  <circle cx="372" cy="332" r="18" fill="#FFFFFF"/>
  <path d="M372 321C375.314 321 378 318.314 378 315C378 311.686 375.314 309 372 309C368.686 309 366 311.686 366 315C366 318.314 368.686 321 372 321Z" fill="#9575CD"/>
  <path d="M378 324H366C364.343 324 363 325.343 363 327V336C363 337.657 364.343 339 366 339H378C379.657 339 381 337.657 381 336V327C381 325.343 379.657 324 378 324Z" fill="#9575CD"/>
  
  <!-- Video camera icon -->
  <path d="M216 122L232 134L216 146V122Z" fill="#673AB7"/>
  <rect x="176" y="112" width="40" height="44" rx="4" fill="#673AB7"/>
</svg> 