<svg width="391" height="115" viewBox="0 0 391 115" fill="none" xmlns="http://www.w3.org/2000/svg">
<g clip-path="url(#clip0_27_31)">
<rect width="391" height="115" fill="white"/>
<path d="M135.614 78L143.341 31.4545H154.591L148.409 68.8636H167.773L166.227 78H135.614ZM184.278 78.6591C180.627 78.6591 177.597 77.9394 175.188 76.5C172.794 75.0455 171.112 72.9773 170.142 70.2955C169.172 67.5985 168.998 64.3939 169.619 60.6818C170.225 57.0758 171.46 53.9242 173.324 51.2273C175.203 48.5152 177.566 46.4091 180.415 44.9091C183.263 43.3939 186.438 42.6364 189.938 42.6364C192.422 42.6364 194.627 43.0227 196.551 43.7955C198.475 44.5682 200.066 45.7197 201.324 47.25C202.581 48.7652 203.438 50.6288 203.892 52.8409C204.347 55.053 204.331 57.5909 203.847 60.4545L203.415 63.2273H173.097L174.119 56.7727H194.119C194.301 55.5909 194.203 54.5379 193.824 53.6136C193.445 52.6894 192.831 51.9697 191.983 51.4545C191.15 50.9242 190.127 50.6591 188.915 50.6591C187.688 50.6591 186.536 50.947 185.46 51.5227C184.4 52.0833 183.498 52.8409 182.756 53.7955C182.013 54.75 181.528 55.8258 181.301 57.0227L180.097 63.6364C179.854 65.1061 179.922 66.3636 180.301 67.4091C180.68 68.4545 181.331 69.2576 182.256 69.8182C183.18 70.3636 184.369 70.6364 185.824 70.6364C186.794 70.6364 187.703 70.5076 188.551 70.25C189.4 69.9773 190.157 69.5758 190.824 69.0455C191.506 68.5 192.059 67.8409 192.483 67.0682L202.619 67.3636C201.801 69.6515 200.536 71.6439 198.824 73.3409C197.112 75.0227 195.021 76.3333 192.551 77.2727C190.097 78.197 187.339 78.6591 184.278 78.6591ZM212.364 78.5909C210.152 78.5909 208.242 78.2197 206.636 77.4773C205.045 76.7197 203.879 75.5758 203.136 74.0455C202.409 72.5152 202.235 70.6061 202.614 68.3182C202.947 66.3788 203.561 64.75 204.455 63.4318C205.364 62.0985 206.477 61.0152 207.795 60.1818C209.129 59.3485 210.614 58.7121 212.25 58.2727C213.886 57.8333 215.598 57.5379 217.386 57.3864C219.386 57.2045 221.008 57.0076 222.25 56.7955C223.508 56.5833 224.447 56.2879 225.068 55.9091C225.689 55.5152 226.068 54.9697 226.205 54.2727V54.1591C226.386 52.9924 226.136 52.0909 225.455 51.4545C224.773 50.8182 223.75 50.5 222.386 50.5C220.932 50.5 219.689 50.8182 218.659 51.4545C217.629 52.0909 216.909 52.9697 216.5 54.0909L206.318 53.7273C206.955 51.6061 208.045 49.7121 209.591 48.0455C211.136 46.3636 213.098 45.0455 215.477 44.0909C217.871 43.1212 220.636 42.6364 223.773 42.6364C225.985 42.6364 227.985 42.9015 229.773 43.4318C231.561 43.947 233.068 44.7045 234.295 45.7045C235.538 46.6894 236.424 47.9015 236.955 49.3409C237.485 50.7803 237.598 52.4242 237.295 54.2727L233.318 78H222.864L223.682 73.1364H223.409C222.591 74.3182 221.629 75.3182 220.523 76.1364C219.432 76.9545 218.205 77.5682 216.841 77.9773C215.477 78.3864 213.985 78.5909 212.364 78.5909ZM217.045 71.3182C218.212 71.3182 219.318 71.0758 220.364 70.5909C221.409 70.1061 222.288 69.4394 223 68.5909C223.727 67.7273 224.189 66.7273 224.386 65.5909L224.909 62.2727C224.591 62.4394 224.189 62.5909 223.705 62.7273C223.22 62.8636 222.705 62.9924 222.159 63.1136C221.614 63.2197 221.053 63.3258 220.477 63.4318C219.917 63.5227 219.379 63.6061 218.864 63.6818C217.773 63.8485 216.826 64.1061 216.023 64.4545C215.22 64.803 214.576 65.2576 214.091 65.8182C213.621 66.3636 213.333 67.0152 213.227 67.7727C213.045 68.9091 213.311 69.7879 214.023 70.4091C214.735 71.0152 215.742 71.3182 217.045 71.3182ZM236.114 78L241.932 43.0909H252.727L251.659 49.4545H252.023C253.038 47.1515 254.364 45.4394 256 44.3182C257.636 43.1818 259.409 42.6136 261.318 42.6136C261.833 42.6136 262.348 42.6515 262.864 42.7273C263.394 42.7879 263.894 42.8788 264.364 43L262.727 52.6818C262.212 52.4848 261.538 52.3409 260.705 52.25C259.871 52.1439 259.114 52.0909 258.432 52.0909C257.114 52.0909 255.886 52.3864 254.75 52.9773C253.629 53.553 252.674 54.3636 251.886 55.4091C251.114 56.4394 250.606 57.6515 250.364 59.0455L247.227 78H236.114ZM273.551 58.0909L270.233 78H259.119L264.938 43.0909H275.506L274.46 49.5H274.847C275.938 47.3636 277.521 45.6894 279.597 44.4773C281.672 43.25 284.006 42.6364 286.597 42.6364C289.036 42.6364 291.074 43.1818 292.71 44.2727C294.347 45.3636 295.506 46.8939 296.188 48.8636C296.869 50.8182 296.983 53.1136 296.528 55.75L292.801 78H281.688L285.028 57.9318C285.362 56.0076 285.127 54.5 284.324 53.4091C283.536 52.303 282.248 51.75 280.46 51.75C279.294 51.75 278.225 52.0076 277.256 52.5227C276.301 53.0227 275.498 53.7424 274.847 54.6818C274.21 55.6212 273.778 56.7576 273.551 58.0909Z" fill="black"/>
<path d="M295.614 78L301.432 43.0909H312.545L306.727 78H295.614ZM307.773 39C306.197 39 304.917 38.4773 303.932 37.4318C302.947 36.3864 302.561 35.1364 302.773 33.6818C302.985 32.2121 303.727 30.9621 305 29.9318C306.273 28.9015 307.689 28.3864 309.25 28.3864C310.826 28.3864 312.091 28.9015 313.045 29.9318C314.015 30.9621 314.394 32.2121 314.182 33.6818C314 35.1364 313.273 36.3864 312 37.4318C310.742 38.4773 309.333 39 307.773 39ZM335.506 43.0909L334.119 51.2727H311.665L313.051 43.0909H335.506ZM311.869 78L318.006 41.3182C318.445 38.6212 319.316 36.3864 320.619 34.6136C321.922 32.8258 323.551 31.4924 325.506 30.6136C327.46 29.7197 329.612 29.2727 331.96 29.2727C333.521 29.2727 334.968 29.3939 336.301 29.6364C337.634 29.8636 338.604 30.0682 339.21 30.25L336.142 38.3864C335.733 38.25 335.248 38.1364 334.688 38.0455C334.142 37.9545 333.604 37.9091 333.074 37.9091C331.786 37.9091 330.854 38.197 330.278 38.7727C329.703 39.3485 329.324 40.1364 329.142 41.1364L322.983 78H311.869ZM335.71 91.0909C334.377 91.0909 333.134 90.9848 331.983 90.7727C330.847 90.5758 329.877 90.3106 329.074 89.9773L332.892 81.9091C333.907 82.2727 334.839 82.4773 335.688 82.5227C336.551 82.5833 337.324 82.4394 338.006 82.0909C338.703 81.7576 339.309 81.1591 339.824 80.2955L340.46 79.2273L334.074 43.0909H345.301L347.574 68.0227H347.938L358.619 43.0909H370.733L351.256 81.3409C350.271 83.25 349.081 84.9394 347.688 86.4091C346.294 87.8788 344.612 89.0227 342.642 89.8409C340.688 90.6742 338.377 91.0909 335.71 91.0909Z" fill="#2D0064"/>
<path d="M107.118 46.0135L106.022 48.5369C105.85 48.9478 105.561 49.2988 105.191 49.5457C104.82 49.7926 104.385 49.9243 103.94 49.9243C103.494 49.9243 103.059 49.7926 102.689 49.5457C102.318 49.2988 102.029 48.9478 101.858 48.5369L100.761 46.0135C98.8326 41.5494 95.3011 37.9703 90.8634 35.9822L87.4795 34.4708C87.069 34.282 86.7212 33.9794 86.4774 33.5989C86.2337 33.2184 86.1041 32.776 86.1041 32.3242C86.1041 31.8723 86.2337 31.4299 86.4774 31.0494C86.7212 30.6689 87.069 30.3663 87.4795 30.1775L90.6761 28.7553C95.2254 26.7106 98.8173 22.999 100.712 18.3852L101.84 15.6611C102.005 15.2392 102.294 14.8769 102.669 14.6216C103.044 14.3662 103.486 14.2296 103.94 14.2296C104.393 14.2296 104.836 14.3662 105.21 14.6216C105.585 14.8769 105.874 15.2392 106.04 15.6611L107.168 18.3807C109.06 22.9954 112.65 26.7086 117.199 28.7553L120.4 30.1819C120.809 30.3713 121.156 30.6739 121.399 31.0539C121.641 31.4338 121.77 31.8754 121.77 32.3264C121.77 32.7774 121.641 33.2189 121.399 33.5989C121.156 33.9789 120.809 34.2815 120.4 34.4708L117.012 35.9778C112.575 37.9678 109.045 41.5486 107.118 46.0135ZM68.273 27.6095C61.0372 27.6106 53.9729 29.8124 48.0179 33.9227C42.0628 38.0331 37.4988 43.8574 34.9318 50.6226C32.3647 57.3877 31.916 64.7736 33.6452 71.7998C35.3744 78.826 39.1998 85.16 44.6134 89.961C50.0271 94.762 56.7729 97.8028 63.9554 98.6798C71.1378 99.5569 78.4172 98.2286 84.827 94.8713C91.2368 91.514 96.4739 86.2866 99.843 79.883C103.212 73.4794 104.554 66.2025 103.69 59.0184L112.544 57.9663C112.752 59.711 112.856 61.4809 112.856 63.2761C112.856 87.8995 92.8964 107.859 68.273 107.859C43.6497 107.859 23.6897 87.8995 23.6897 63.2761C23.6897 38.6528 43.6497 18.6928 68.273 18.6928C72.1117 18.6928 75.8477 19.1832 79.4099 20.0972L77.1897 28.733C74.2767 27.984 71.2807 27.6065 68.273 27.6095ZM72.7314 58.8178H86.1064L63.8147 90.0261V67.7345H50.4397L72.7314 36.5261V58.8178Z" fill="#5D08C5"/>
</g>
<defs>
<clipPath id="clip0_27_31">
<rect width="391" height="115" fill="white"/>
</clipPath>
</defs>
</svg>
